<svg xmlns="http://www.w3.org/2000/svg" xmlns:xlink="http://www.w3.org/1999/xlink" width="2560" zoomAndPan="magnify" viewBox="0 0 1920 1079.999946" height="1440" preserveAspectRatio="xMidYMid meet" version="1.0"><defs><g/><clipPath id="a3f5831978"><rect x="0" width="1475" y="0" height="1080"/></clipPath><clipPath id="2c2d4fb41f"><path d="M 118 474.652344 L 1423.230469 474.652344 L 1423.230469 947.902344 L 118 947.902344 Z M 118 474.652344 " clip-rule="nonzero"/></clipPath><clipPath id="996bc93ce5"><rect x="0" width="1338" y="0" height="86"/></clipPath></defs><g transform="matrix(1, 0, 0, 1, 266, -0.000000000000003846)"><g clip-path="url(#a3f5831978)"><g fill="#ffffff" fill-opacity="1"><g transform="translate(3.846557, 838.173105)"><g><path d="M 13.546875 0 L 82.78125 -647.15625 L 206.1875 -647.15625 L 152 -206.9375 L 295.734375 -647.15625 L 419.140625 -647.15625 L 190.375 0 Z M 13.546875 0 "/></g></g></g><g fill="#ffffff" fill-opacity="1"><g transform="translate(319.094334, 838.173105)"><g><path d="M -45.15625 0 L 103.84375 -646.390625 L 362.703125 -646.390625 L 334.109375 -521.484375 L 206.9375 -521.484375 L 177.59375 -395.8125 L 299.5 -395.8125 L 271.65625 -273.90625 L 149.75 -273.90625 L 115.125 -125.671875 L 250.578125 -125.671875 L 221.984375 0 Z M -45.15625 0 "/></g></g></g><g fill="#ffffff" fill-opacity="1"><g transform="translate(591.455743, 838.173105)"><g><path d="M 106.859375 6.015625 C 48.160156 6.015625 9.15625 -8.53125 -10.15625 -37.625 C -29.46875 -66.71875 -31.601562 -113.625 -16.5625 -178.34375 L -2.265625 -241.546875 L 124.90625 -241.546875 L 106.09375 -161.03125 C 98.570312 -128.925781 105.097656 -112.875 125.671875 -112.875 C 137.203125 -112.875 146.101562 -116.257812 152.375 -123.03125 C 158.644531 -129.800781 163.535156 -141.210938 167.046875 -157.265625 C 172.066406 -178.335938 173.570312 -195.769531 171.5625 -209.5625 C 169.5625 -223.363281 165.800781 -234.90625 160.28125 -244.1875 C 154.757812 -253.46875 144.222656 -267.890625 128.671875 -287.453125 L 85.78125 -343.140625 C 52.675781 -385.273438 41.890625 -431.929688 53.421875 -483.109375 C 65.960938 -538.285156 88.285156 -580.296875 120.390625 -609.140625 C 152.503906 -637.992188 192.890625 -652.421875 241.546875 -652.421875 C 299.742188 -652.421875 338.125 -636.992188 356.6875 -606.140625 C 375.25 -575.285156 376.753906 -527 361.203125 -461.28125 L 229.515625 -461.28125 L 239.296875 -505.6875 C 241.296875 -514.207031 240.539062 -520.972656 237.03125 -525.984375 C 233.519531 -531.003906 227.5 -533.515625 218.96875 -533.515625 C 208.9375 -533.515625 200.660156 -530.753906 194.140625 -525.234375 C 187.617188 -519.722656 183.351562 -512.203125 181.34375 -502.671875 C 176.332031 -481.597656 183.359375 -459.773438 202.421875 -437.203125 L 261.109375 -364.96875 C 274.660156 -347.90625 285.445312 -331.722656 293.46875 -316.421875 C 301.5 -301.117188 306.640625 -283.054688 308.890625 -262.234375 C 311.148438 -241.421875 309.019531 -216.71875 302.5 -188.125 C 287.445312 -124.414062 264.492188 -76.128906 233.640625 -43.265625 C 202.796875 -10.410156 160.535156 6.015625 106.859375 6.015625 Z M 106.859375 6.015625 "/></g></g></g><g fill="#ffffff" fill-opacity="1"><g transform="translate(900.684445, 838.173105)"><g><path d="M 106.859375 6.015625 C 48.160156 6.015625 9.15625 -8.53125 -10.15625 -37.625 C -29.46875 -66.71875 -31.601562 -113.625 -16.5625 -178.34375 L -2.265625 -241.546875 L 124.90625 -241.546875 L 106.09375 -161.03125 C 98.570312 -128.925781 105.097656 -112.875 125.671875 -112.875 C 137.203125 -112.875 146.101562 -116.257812 152.375 -123.03125 C 158.644531 -129.800781 163.535156 -141.210938 167.046875 -157.265625 C 172.066406 -178.335938 173.570312 -195.769531 171.5625 -209.5625 C 169.5625 -223.363281 165.800781 -234.90625 160.28125 -244.1875 C 154.757812 -253.46875 144.222656 -267.890625 128.671875 -287.453125 L 85.78125 -343.140625 C 52.675781 -385.273438 41.890625 -431.929688 53.421875 -483.109375 C 65.960938 -538.285156 88.285156 -580.296875 120.390625 -609.140625 C 152.503906 -637.992188 192.890625 -652.421875 241.546875 -652.421875 C 299.742188 -652.421875 338.125 -636.992188 356.6875 -606.140625 C 375.25 -575.285156 376.753906 -527 361.203125 -461.28125 L 229.515625 -461.28125 L 239.296875 -505.6875 C 241.296875 -514.207031 240.539062 -520.972656 237.03125 -525.984375 C 233.519531 -531.003906 227.5 -533.515625 218.96875 -533.515625 C 208.9375 -533.515625 200.660156 -530.753906 194.140625 -525.234375 C 187.617188 -519.722656 183.351562 -512.203125 181.34375 -502.671875 C 176.332031 -481.597656 183.359375 -459.773438 202.421875 -437.203125 L 261.109375 -364.96875 C 274.660156 -347.90625 285.445312 -331.722656 293.46875 -316.421875 C 301.5 -301.117188 306.640625 -283.054688 308.890625 -262.234375 C 311.148438 -241.421875 309.019531 -216.71875 302.5 -188.125 C 287.445312 -124.414062 264.492188 -76.128906 233.640625 -43.265625 C 202.796875 -10.410156 160.535156 6.015625 106.859375 6.015625 Z M 106.859375 6.015625 "/></g></g></g><g fill="#ffffff" fill-opacity="1"><g transform="translate(1209.913147, 838.173105)"><g><path d="M -45.15625 0 L 103.84375 -646.390625 L 233.265625 -646.390625 L 109.859375 -109.859375 L 243.0625 -109.859375 L 217.46875 0 Z M -45.15625 0 "/></g></g></g></g></g><g clip-path="url(#2c2d4fb41f)"><path fill="#4ca5a5" d="M 457.902344 758.90625 L 436.269531 666.308594 C 435.515625 663.089844 432.652344 660.820312 429.355469 660.820312 C 429.34375 660.820312 429.328125 660.820312 429.3125 660.820312 C 426.003906 660.839844 423.136719 663.148438 422.417969 666.382812 L 407.207031 734.863281 L 388.703125 481.191406 C 388.433594 477.480469 385.339844 474.609375 381.617188 474.609375 C 381.609375 474.609375 381.601562 474.609375 381.585938 474.609375 C 377.851562 474.625 374.773438 477.527344 374.53125 481.253906 L 347.019531 908.058594 L 329.519531 712.535156 C 329.222656 709.222656 326.671875 706.558594 323.378906 706.125 C 320.058594 705.679688 316.925781 707.601562 315.78125 710.71875 L 298.207031 758.554688 L 118.566406 758.902344 L 118.566406 773.105469 L 299.464844 772.757812 C 304.640625 772.75 309.316406 769.484375 311.105469 764.625 L 318.191406 745.335938 L 335.304688 936.507812 C 335.828125 942.40625 340.675781 947.148438 346.589844 947.527344 C 346.851562 947.542969 347.113281 947.550781 347.378906 947.550781 C 350.316406 947.550781 353.121094 946.496094 355.351562 944.535156 C 357.785156 942.398438 359.238281 939.445312 359.441406 936.226562 L 382.054688 585.332031 L 394.503906 755.941406 C 394.878906 760.859375 398.488281 765.039062 403.289062 766.101562 C 409.339844 767.433594 415.371094 763.613281 416.722656 757.550781 L 429.527344 699.894531 L 444.640625 764.59375 C 445.820312 769.609375 450.242188 773.113281 455.398438 773.113281 L 1485.800781 772.78125 L 1485.800781 758.574219 L 457.902344 758.90625 " fill-opacity="1" fill-rule="nonzero"/></g><g transform="matrix(1, 0, 0, 1, 403, 875)"><g clip-path="url(#996bc93ce5)"><g fill="#ffffff" fill-opacity="1"><g transform="translate(0.673595, 67.023782)"><g><path d="M 21.09375 -22.890625 C 15.28125 -24.566406 11.050781 -26.617188 8.40625 -29.046875 C 5.757812 -31.484375 4.4375 -34.488281 4.4375 -38.0625 C 4.4375 -42.113281 6.050781 -45.460938 9.28125 -48.109375 C 12.519531 -50.753906 16.726562 -52.078125 21.90625 -52.078125 C 25.4375 -52.078125 28.582031 -51.394531 31.34375 -50.03125 C 34.101562 -48.664062 36.242188 -46.78125 37.765625 -44.375 C 39.285156 -41.976562 40.046875 -39.359375 40.046875 -36.515625 L 33.234375 -36.515625 C 33.234375 -39.617188 32.242188 -42.054688 30.265625 -43.828125 C 28.296875 -45.609375 25.507812 -46.5 21.90625 -46.5 C 18.5625 -46.5 15.957031 -45.765625 14.09375 -44.296875 C 12.226562 -42.828125 11.296875 -40.785156 11.296875 -38.171875 C 11.296875 -36.078125 12.179688 -34.304688 13.953125 -32.859375 C 15.722656 -31.410156 18.742188 -30.085938 23.015625 -28.890625 C 27.285156 -27.691406 30.625 -26.367188 33.03125 -24.921875 C 35.445312 -23.472656 37.234375 -21.785156 38.390625 -19.859375 C 39.554688 -17.929688 40.140625 -15.660156 40.140625 -13.046875 C 40.140625 -8.890625 38.515625 -5.554688 35.265625 -3.046875 C 32.023438 -0.546875 27.691406 0.703125 22.265625 0.703125 C 18.734375 0.703125 15.4375 0.03125 12.375 -1.3125 C 9.320312 -2.664062 6.96875 -4.519531 5.3125 -6.875 C 3.65625 -9.226562 2.828125 -11.898438 2.828125 -14.890625 L 9.625 -14.890625 C 9.625 -11.785156 10.769531 -9.332031 13.0625 -7.53125 C 15.363281 -5.726562 18.429688 -4.828125 22.265625 -4.828125 C 25.835938 -4.828125 28.578125 -5.554688 30.484375 -7.015625 C 32.390625 -8.472656 33.34375 -10.457031 33.34375 -12.96875 C 33.34375 -15.488281 32.457031 -17.4375 30.6875 -18.8125 C 28.925781 -20.195312 25.726562 -21.554688 21.09375 -22.890625 Z M 21.09375 -22.890625 "/></g></g></g><g fill="#ffffff" fill-opacity="1"><g transform="translate(75.969637, 67.023782)"><g><path d="M 41.453125 -45.796875 L 24.9375 -45.796875 L 24.9375 0 L 18.203125 0 L 18.203125 -45.796875 L 1.734375 -45.796875 L 1.734375 -51.359375 L 41.453125 -51.359375 Z M 41.453125 -45.796875 "/></g></g></g><g fill="#ffffff" fill-opacity="1"><g transform="translate(151.512603, 67.023782)"><g><path d="M 24.796875 -20.78125 L 12.734375 -20.78125 L 12.734375 0 L 5.921875 0 L 5.921875 -51.359375 L 22.9375 -51.359375 C 28.71875 -51.359375 33.164062 -50.039062 36.28125 -47.40625 C 39.394531 -44.78125 40.953125 -40.945312 40.953125 -35.90625 C 40.953125 -32.707031 40.085938 -29.921875 38.359375 -27.546875 C 36.628906 -25.171875 34.226562 -23.394531 31.15625 -22.21875 L 43.21875 -0.421875 L 43.21875 0 L 35.953125 0 Z M 12.734375 -26.3125 L 23.140625 -26.3125 C 26.503906 -26.3125 29.179688 -27.179688 31.171875 -28.921875 C 33.160156 -30.660156 34.15625 -32.988281 34.15625 -35.90625 C 34.15625 -39.082031 33.207031 -41.515625 31.3125 -43.203125 C 29.414062 -44.898438 26.679688 -45.765625 23.109375 -45.796875 L 12.734375 -45.796875 Z M 12.734375 -26.3125 "/></g></g></g><g fill="#ffffff" fill-opacity="1"><g transform="translate(228.43129, 67.023782)"><g><path d="M 35 -23.75 L 12.734375 -23.75 L 12.734375 -5.53125 L 38.59375 -5.53125 L 38.59375 0 L 5.96875 0 L 5.96875 -51.359375 L 38.234375 -51.359375 L 38.234375 -45.796875 L 12.734375 -45.796875 L 12.734375 -29.28125 L 35 -29.28125 Z M 35 -23.75 "/></g></g></g><g fill="#ffffff" fill-opacity="1"><g transform="translate(301.928311, 67.023782)"><g><path d="M 45.4375 0 L 38.625 0 L 12.765625 -39.578125 L 12.765625 0 L 5.96875 0 L 5.96875 -51.359375 L 12.765625 -51.359375 L 38.703125 -11.609375 L 38.703125 -51.359375 L 45.4375 -51.359375 Z M 45.4375 0 "/></g></g></g><g fill="#ffffff" fill-opacity="1"><g transform="translate(385.866706, 67.023782)"><g><path d="M 43.890625 -6.734375 C 42.148438 -4.242188 39.71875 -2.378906 36.59375 -1.140625 C 33.476562 0.0859375 29.851562 0.703125 25.71875 0.703125 C 21.53125 0.703125 17.8125 -0.273438 14.5625 -2.234375 C 11.320312 -4.203125 8.8125 -6.992188 7.03125 -10.609375 C 5.257812 -14.234375 4.347656 -18.4375 4.296875 -23.21875 L 4.296875 -27.6875 C 4.296875 -35.425781 6.101562 -41.425781 9.71875 -45.6875 C 13.332031 -49.945312 18.40625 -52.078125 24.9375 -52.078125 C 30.300781 -52.078125 34.617188 -50.703125 37.890625 -47.953125 C 41.160156 -45.210938 43.160156 -41.328125 43.890625 -36.296875 L 37.109375 -36.296875 C 35.835938 -43.097656 31.796875 -46.5 24.984375 -46.5 C 20.441406 -46.5 17 -44.90625 14.65625 -41.71875 C 12.3125 -38.53125 11.128906 -33.914062 11.109375 -27.875 L 11.109375 -23.671875 C 11.109375 -17.910156 12.425781 -13.328125 15.0625 -9.921875 C 17.695312 -6.523438 21.257812 -4.828125 25.75 -4.828125 C 28.289062 -4.828125 30.515625 -5.109375 32.421875 -5.671875 C 34.328125 -6.242188 35.898438 -7.195312 37.140625 -8.53125 L 37.140625 -20.078125 L 25.265625 -20.078125 L 25.265625 -25.578125 L 43.890625 -25.578125 Z M 43.890625 -6.734375 "/></g></g></g><g fill="#ffffff" fill-opacity="1"><g transform="translate(467.512231, 67.023782)"><g><path d="M 41.453125 -45.796875 L 24.9375 -45.796875 L 24.9375 0 L 18.203125 0 L 18.203125 -45.796875 L 1.734375 -45.796875 L 1.734375 -51.359375 L 41.453125 -51.359375 Z M 41.453125 -45.796875 "/></g></g></g><g fill="#ffffff" fill-opacity="1"><g transform="translate(543.055197, 67.023782)"><g><path d="M 45.4375 0 L 38.625 0 L 38.625 -23.75 L 12.734375 -23.75 L 12.734375 0 L 5.96875 0 L 5.96875 -51.359375 L 12.734375 -51.359375 L 12.734375 -29.28125 L 38.625 -29.28125 L 38.625 -51.359375 L 45.4375 -51.359375 Z M 45.4375 0 "/></g></g></g><g fill="#ffffff" fill-opacity="1"><g transform="translate(626.993592, 67.023782)"><g/></g></g><g fill="#ffffff" fill-opacity="1"><g transform="translate(677.314997, 67.023782)"><g><path d="M 13.234375 0 L 6.453125 0 L 6.453125 -51.359375 L 13.234375 -51.359375 Z M 13.234375 0 "/></g></g></g><g fill="#ffffff" fill-opacity="1"><g transform="translate(729.400147, 67.023782)"><g><path d="M 45.4375 0 L 38.625 0 L 12.765625 -39.578125 L 12.765625 0 L 5.96875 0 L 5.96875 -51.359375 L 12.765625 -51.359375 L 38.703125 -11.609375 L 38.703125 -51.359375 L 45.4375 -51.359375 Z M 45.4375 0 "/></g></g></g><g fill="#ffffff" fill-opacity="1"><g transform="translate(813.338542, 67.023782)"><g/></g></g><g fill="#ffffff" fill-opacity="1"><g transform="translate(863.659947, 67.023782)"><g><path d="M 14.71875 -51.359375 L 31.5 -9.453125 L 48.296875 -51.359375 L 57.078125 -51.359375 L 57.078125 0 L 50.3125 0 L 50.3125 -20 L 50.9375 -41.59375 L 34.078125 0 L 28.890625 0 L 12.0625 -41.484375 L 12.734375 -20 L 12.734375 0 L 5.96875 0 L 5.96875 -51.359375 Z M 14.71875 -51.359375 "/></g></g></g><g fill="#ffffff" fill-opacity="1"><g transform="translate(959.168512, 67.023782)"><g><path d="M 45.46875 -24.03125 C 45.46875 -18.988281 44.617188 -14.59375 42.921875 -10.84375 C 41.234375 -7.09375 38.835938 -4.226562 35.734375 -2.25 C 32.628906 -0.28125 29.007812 0.703125 24.875 0.703125 C 20.820312 0.703125 17.234375 -0.285156 14.109375 -2.265625 C 10.984375 -4.253906 8.554688 -7.085938 6.828125 -10.765625 C 5.097656 -14.453125 4.207031 -18.71875 4.15625 -23.5625 L 4.15625 -27.265625 C 4.15625 -32.203125 5.015625 -36.5625 6.734375 -40.34375 C 8.453125 -44.132812 10.878906 -47.035156 14.015625 -49.046875 C 17.160156 -51.066406 20.753906 -52.078125 24.796875 -52.078125 C 28.910156 -52.078125 32.535156 -51.082031 35.671875 -49.09375 C 38.816406 -47.101562 41.234375 -44.21875 42.921875 -40.4375 C 44.617188 -36.664062 45.46875 -32.273438 45.46875 -27.265625 Z M 38.734375 -27.34375 C 38.734375 -33.4375 37.507812 -38.109375 35.0625 -41.359375 C 32.613281 -44.617188 29.191406 -46.25 24.796875 -46.25 C 20.515625 -46.25 17.144531 -44.617188 14.6875 -41.359375 C 12.226562 -38.109375 10.96875 -33.585938 10.90625 -27.796875 L 10.90625 -24.03125 C 10.90625 -18.125 12.144531 -13.484375 14.625 -10.109375 C 17.101562 -6.734375 20.519531 -5.046875 24.875 -5.046875 C 29.25 -5.046875 32.632812 -6.640625 35.03125 -9.828125 C 37.425781 -13.015625 38.660156 -17.582031 38.734375 -23.53125 Z M 38.734375 -27.34375 "/></g></g></g><g fill="#ffffff" fill-opacity="1"><g transform="translate(1041.272611, 67.023782)"><g><path d="M 41.453125 -45.796875 L 24.9375 -45.796875 L 24.9375 0 L 18.203125 0 L 18.203125 -45.796875 L 1.734375 -45.796875 L 1.734375 -51.359375 L 41.453125 -51.359375 Z M 41.453125 -45.796875 "/></g></g></g><g fill="#ffffff" fill-opacity="1"><g transform="translate(1116.815577, 67.023782)"><g><path d="M 13.234375 0 L 6.453125 0 L 6.453125 -51.359375 L 13.234375 -51.359375 Z M 13.234375 0 "/></g></g></g><g fill="#ffffff" fill-opacity="1"><g transform="translate(1168.900728, 67.023782)"><g><path d="M 45.46875 -24.03125 C 45.46875 -18.988281 44.617188 -14.59375 42.921875 -10.84375 C 41.234375 -7.09375 38.835938 -4.226562 35.734375 -2.25 C 32.628906 -0.28125 29.007812 0.703125 24.875 0.703125 C 20.820312 0.703125 17.234375 -0.285156 14.109375 -2.265625 C 10.984375 -4.253906 8.554688 -7.085938 6.828125 -10.765625 C 5.097656 -14.453125 4.207031 -18.71875 4.15625 -23.5625 L 4.15625 -27.265625 C 4.15625 -32.203125 5.015625 -36.5625 6.734375 -40.34375 C 8.453125 -44.132812 10.878906 -47.035156 14.015625 -49.046875 C 17.160156 -51.066406 20.753906 -52.078125 24.796875 -52.078125 C 28.910156 -52.078125 32.535156 -51.082031 35.671875 -49.09375 C 38.816406 -47.101562 41.234375 -44.21875 42.921875 -40.4375 C 44.617188 -36.664062 45.46875 -32.273438 45.46875 -27.265625 Z M 38.734375 -27.34375 C 38.734375 -33.4375 37.507812 -38.109375 35.0625 -41.359375 C 32.613281 -44.617188 29.191406 -46.25 24.796875 -46.25 C 20.515625 -46.25 17.144531 -44.617188 14.6875 -41.359375 C 12.226562 -38.109375 10.96875 -33.585938 10.90625 -27.796875 L 10.90625 -24.03125 C 10.90625 -18.125 12.144531 -13.484375 14.625 -10.109375 C 17.101562 -6.734375 20.519531 -5.046875 24.875 -5.046875 C 29.25 -5.046875 32.632812 -6.640625 35.03125 -9.828125 C 37.425781 -13.015625 38.660156 -17.582031 38.734375 -23.53125 Z M 38.734375 -27.34375 "/></g></g></g><g fill="#ffffff" fill-opacity="1"><g transform="translate(1251.004827, 67.023782)"><g><path d="M 45.4375 0 L 38.625 0 L 12.765625 -39.578125 L 12.765625 0 L 5.96875 0 L 5.96875 -51.359375 L 12.765625 -51.359375 L 38.703125 -11.609375 L 38.703125 -51.359375 L 45.4375 -51.359375 Z M 45.4375 0 "/></g></g></g></g></g></svg>