<svg xmlns="http://www.w3.org/2000/svg" xmlns:xlink="http://www.w3.org/1999/xlink" width="500" zoomAndPan="magnify" viewBox="0 0 375 374.999991" height="500" preserveAspectRatio="xMidYMid meet" version="1.0"><defs><g/><clipPath id="758b02277c"><path d="M 32.113281 33.863281 L 342.613281 33.863281 L 342.613281 341.363281 L 32.113281 341.363281 Z M 32.113281 33.863281 " clip-rule="nonzero"/></clipPath><clipPath id="f30c0f5f3f"><path d="M 261.15625 341.347656 L 113.570312 341.347656 C 68.601562 341.347656 32.113281 304.800781 32.113281 259.757812 L 32.113281 115.464844 C 32.113281 70.421875 68.601562 33.875 113.570312 33.875 L 261.15625 33.875 C 306.125 33.875 342.613281 70.421875 342.613281 115.464844 L 342.613281 259.757812 C 342.613281 304.800781 306.125 341.347656 261.15625 341.347656 Z M 261.15625 341.347656 " clip-rule="nonzero"/></clipPath><linearGradient x1="10.22548" gradientTransform="matrix(0.396197, 0, 0, 0.396844, 28.943794, 28.516759)" y1="11.274487" x2="789.4755" gradientUnits="userSpaceOnUse" y2="790.524446" id="3ec4f668a0"><stop stop-opacity="1" stop-color="rgb(28.239441%, 93.728638%, 67.059326%)" offset="0"/><stop stop-opacity="1" stop-color="rgb(28.239441%, 93.728638%, 67.059326%)" offset="0.0625"/><stop stop-opacity="1" stop-color="rgb(28.237915%, 93.714905%, 67.066956%)" offset="0.078125"/><stop stop-opacity="1" stop-color="rgb(28.233337%, 93.56842%, 67.152405%)" offset="0.0859375"/><stop stop-opacity="1" stop-color="rgb(28.224182%, 93.304443%, 67.308044%)" offset="0.09375"/><stop stop-opacity="1" stop-color="rgb(28.215027%, 93.03894%, 67.462158%)" offset="0.101562"/><stop stop-opacity="1" stop-color="rgb(28.205872%, 92.774963%, 67.617798%)" offset="0.109375"/><stop stop-opacity="1" stop-color="rgb(28.196716%, 92.510986%, 67.771912%)" offset="0.117187"/><stop stop-opacity="1" stop-color="rgb(28.187561%, 92.247009%, 67.927551%)" offset="0.125"/><stop stop-opacity="1" stop-color="rgb(28.178406%, 91.983032%, 68.081665%)" offset="0.132812"/><stop stop-opacity="1" stop-color="rgb(28.16925%, 91.719055%, 68.237305%)" offset="0.140625"/><stop stop-opacity="1" stop-color="rgb(28.158569%, 91.453552%, 68.391418%)" offset="0.148437"/><stop stop-opacity="1" stop-color="rgb(28.149414%, 91.189575%, 68.547058%)" offset="0.15625"/><stop stop-opacity="1" stop-color="rgb(28.140259%, 90.925598%, 68.701172%)" offset="0.164062"/><stop stop-opacity="1" stop-color="rgb(28.131104%, 90.661621%, 68.856812%)" offset="0.171875"/><stop stop-opacity="1" stop-color="rgb(28.121948%, 90.397644%, 69.010925%)" offset="0.179687"/><stop stop-opacity="1" stop-color="rgb(28.112793%, 90.133667%, 69.166565%)" offset="0.1875"/><stop stop-opacity="1" stop-color="rgb(28.103638%, 89.868164%, 69.320679%)" offset="0.195312"/><stop stop-opacity="1" stop-color="rgb(28.094482%, 89.604187%, 69.476318%)" offset="0.203125"/><stop stop-opacity="1" stop-color="rgb(28.085327%, 89.34021%, 69.630432%)" offset="0.210938"/><stop stop-opacity="1" stop-color="rgb(28.076172%, 89.076233%, 69.786072%)" offset="0.21875"/><stop stop-opacity="1" stop-color="rgb(28.067017%, 88.812256%, 69.940186%)" offset="0.226562"/><stop stop-opacity="1" stop-color="rgb(28.056335%, 88.548279%, 70.095825%)" offset="0.234375"/><stop stop-opacity="1" stop-color="rgb(28.04718%, 88.282776%, 70.249939%)" offset="0.242188"/><stop stop-opacity="1" stop-color="rgb(28.038025%, 88.018799%, 70.405579%)" offset="0.25"/><stop stop-opacity="1" stop-color="rgb(28.02887%, 87.754822%, 70.559692%)" offset="0.257812"/><stop stop-opacity="1" stop-color="rgb(28.019714%, 87.490845%, 70.715332%)" offset="0.265625"/><stop stop-opacity="1" stop-color="rgb(28.010559%, 87.226868%, 70.869446%)" offset="0.273437"/><stop stop-opacity="1" stop-color="rgb(28.001404%, 86.962891%, 71.025085%)" offset="0.28125"/><stop stop-opacity="1" stop-color="rgb(27.992249%, 86.697388%, 71.179199%)" offset="0.289062"/><stop stop-opacity="1" stop-color="rgb(27.983093%, 86.433411%, 71.334839%)" offset="0.296875"/><stop stop-opacity="1" stop-color="rgb(27.973938%, 86.169434%, 71.488953%)" offset="0.304688"/><stop stop-opacity="1" stop-color="rgb(27.964783%, 85.905457%, 71.644592%)" offset="0.3125"/><stop stop-opacity="1" stop-color="rgb(27.955627%, 85.641479%, 71.798706%)" offset="0.320312"/><stop stop-opacity="1" stop-color="rgb(27.944946%, 85.377502%, 71.954346%)" offset="0.328125"/><stop stop-opacity="1" stop-color="rgb(27.935791%, 85.112%, 72.108459%)" offset="0.335937"/><stop stop-opacity="1" stop-color="rgb(27.926636%, 84.848022%, 72.264099%)" offset="0.34375"/><stop stop-opacity="1" stop-color="rgb(27.91748%, 84.584045%, 72.418213%)" offset="0.351562"/><stop stop-opacity="1" stop-color="rgb(27.908325%, 84.320068%, 72.573853%)" offset="0.359375"/><stop stop-opacity="1" stop-color="rgb(27.89917%, 84.056091%, 72.727966%)" offset="0.367188"/><stop stop-opacity="1" stop-color="rgb(27.890015%, 83.792114%, 72.883606%)" offset="0.375"/><stop stop-opacity="1" stop-color="rgb(27.880859%, 83.526611%, 73.03772%)" offset="0.382812"/><stop stop-opacity="1" stop-color="rgb(27.871704%, 83.262634%, 73.193359%)" offset="0.390625"/><stop stop-opacity="1" stop-color="rgb(27.862549%, 82.998657%, 73.347473%)" offset="0.398437"/><stop stop-opacity="1" stop-color="rgb(27.853394%, 82.73468%, 73.503113%)" offset="0.40625"/><stop stop-opacity="1" stop-color="rgb(27.842712%, 82.470703%, 73.658752%)" offset="0.414062"/><stop stop-opacity="1" stop-color="rgb(27.828979%, 82.18689%, 73.823547%)" offset="0.421875"/><stop stop-opacity="1" stop-color="rgb(27.810669%, 81.884766%, 73.997498%)" offset="0.429688"/><stop stop-opacity="1" stop-color="rgb(27.793884%, 81.584167%, 74.172974%)" offset="0.4375"/><stop stop-opacity="1" stop-color="rgb(27.775574%, 81.283569%, 74.346924%)" offset="0.445312"/><stop stop-opacity="1" stop-color="rgb(27.757263%, 80.982971%, 74.520874%)" offset="0.453125"/><stop stop-opacity="1" stop-color="rgb(27.738953%, 80.682373%, 74.69635%)" offset="0.460937"/><stop stop-opacity="1" stop-color="rgb(27.722168%, 80.380249%, 74.8703%)" offset="0.46875"/><stop stop-opacity="1" stop-color="rgb(27.703857%, 80.079651%, 75.04425%)" offset="0.476562"/><stop stop-opacity="1" stop-color="rgb(27.685547%, 79.779053%, 75.219727%)" offset="0.484375"/><stop stop-opacity="1" stop-color="rgb(27.667236%, 79.478455%, 75.393677%)" offset="0.492187"/><stop stop-opacity="1" stop-color="rgb(27.650452%, 79.177856%, 75.569153%)" offset="0.497145"/><stop stop-opacity="1" stop-color="rgb(27.641296%, 79.02832%, 75.656128%)" offset="0.5"/><stop stop-opacity="1" stop-color="rgb(27.632141%, 78.877258%, 75.743103%)" offset="0.502855"/><stop stop-opacity="1" stop-color="rgb(27.622986%, 78.726196%, 75.830078%)" offset="0.507812"/><stop stop-opacity="1" stop-color="rgb(27.613831%, 78.575134%, 75.917053%)" offset="0.515625"/><stop stop-opacity="1" stop-color="rgb(27.59552%, 78.274536%, 76.092529%)" offset="0.523437"/><stop stop-opacity="1" stop-color="rgb(27.577209%, 77.973938%, 76.266479%)" offset="0.53125"/><stop stop-opacity="1" stop-color="rgb(27.560425%, 77.67334%, 76.441956%)" offset="0.539062"/><stop stop-opacity="1" stop-color="rgb(27.542114%, 77.372742%, 76.615906%)" offset="0.546875"/><stop stop-opacity="1" stop-color="rgb(27.523804%, 77.070618%, 76.789856%)" offset="0.554687"/><stop stop-opacity="1" stop-color="rgb(27.505493%, 76.77002%, 76.965332%)" offset="0.5625"/><stop stop-opacity="1" stop-color="rgb(27.488708%, 76.469421%, 77.139282%)" offset="0.570312"/><stop stop-opacity="1" stop-color="rgb(27.470398%, 76.168823%, 77.313232%)" offset="0.578125"/><stop stop-opacity="1" stop-color="rgb(27.452087%, 75.868225%, 77.488708%)" offset="0.585938"/><stop stop-opacity="1" stop-color="rgb(27.433777%, 75.567627%, 77.662659%)" offset="0.59375"/><stop stop-opacity="1" stop-color="rgb(27.416992%, 75.265503%, 77.838135%)" offset="0.601562"/><stop stop-opacity="1" stop-color="rgb(27.398682%, 74.964905%, 78.012085%)" offset="0.609375"/><stop stop-opacity="1" stop-color="rgb(27.380371%, 74.664307%, 78.186035%)" offset="0.617187"/><stop stop-opacity="1" stop-color="rgb(27.362061%, 74.363708%, 78.361511%)" offset="0.625"/><stop stop-opacity="1" stop-color="rgb(27.34375%, 74.06311%, 78.535461%)" offset="0.632812"/><stop stop-opacity="1" stop-color="rgb(27.326965%, 73.760986%, 78.710938%)" offset="0.640625"/><stop stop-opacity="1" stop-color="rgb(27.308655%, 73.460388%, 78.884888%)" offset="0.648437"/><stop stop-opacity="1" stop-color="rgb(27.290344%, 73.15979%, 79.058838%)" offset="0.65625"/><stop stop-opacity="1" stop-color="rgb(27.272034%, 72.859192%, 79.234314%)" offset="0.664062"/><stop stop-opacity="1" stop-color="rgb(27.255249%, 72.558594%, 79.408264%)" offset="0.671875"/><stop stop-opacity="1" stop-color="rgb(27.236938%, 72.257996%, 79.582214%)" offset="0.679688"/><stop stop-opacity="1" stop-color="rgb(27.218628%, 71.955872%, 79.75769%)" offset="0.6875"/><stop stop-opacity="1" stop-color="rgb(27.200317%, 71.655273%, 79.931641%)" offset="0.695312"/><stop stop-opacity="1" stop-color="rgb(27.183533%, 71.354675%, 80.107117%)" offset="0.703125"/><stop stop-opacity="1" stop-color="rgb(27.165222%, 71.054077%, 80.281067%)" offset="0.710938"/><stop stop-opacity="1" stop-color="rgb(27.146912%, 70.753479%, 80.455017%)" offset="0.71875"/><stop stop-opacity="1" stop-color="rgb(27.128601%, 70.452881%, 80.630493%)" offset="0.726562"/><stop stop-opacity="1" stop-color="rgb(27.110291%, 70.150757%, 80.804443%)" offset="0.734375"/><stop stop-opacity="1" stop-color="rgb(27.093506%, 69.850159%, 80.979919%)" offset="0.742187"/><stop stop-opacity="1" stop-color="rgb(27.075195%, 69.549561%, 81.15387%)" offset="0.75"/><stop stop-opacity="1" stop-color="rgb(27.056885%, 69.248962%, 81.32782%)" offset="0.757812"/><stop stop-opacity="1" stop-color="rgb(27.038574%, 68.948364%, 81.503296%)" offset="0.765625"/><stop stop-opacity="1" stop-color="rgb(27.02179%, 68.64624%, 81.677246%)" offset="0.773437"/><stop stop-opacity="1" stop-color="rgb(27.003479%, 68.345642%, 81.851196%)" offset="0.78125"/><stop stop-opacity="1" stop-color="rgb(26.985168%, 68.045044%, 82.026672%)" offset="0.789062"/><stop stop-opacity="1" stop-color="rgb(26.966858%, 67.744446%, 82.200623%)" offset="0.796875"/><stop stop-opacity="1" stop-color="rgb(26.950073%, 67.443848%, 82.376099%)" offset="0.804688"/><stop stop-opacity="1" stop-color="rgb(26.931763%, 67.14325%, 82.550049%)" offset="0.8125"/><stop stop-opacity="1" stop-color="rgb(26.913452%, 66.841125%, 82.723999%)" offset="0.820312"/><stop stop-opacity="1" stop-color="rgb(26.895142%, 66.540527%, 82.899475%)" offset="0.828125"/><stop stop-opacity="1" stop-color="rgb(26.876831%, 66.239929%, 83.073425%)" offset="0.835938"/><stop stop-opacity="1" stop-color="rgb(26.860046%, 65.939331%, 83.248901%)" offset="0.84375"/><stop stop-opacity="1" stop-color="rgb(26.841736%, 65.638733%, 83.422852%)" offset="0.851563"/><stop stop-opacity="1" stop-color="rgb(26.823425%, 65.336609%, 83.596802%)" offset="0.859375"/><stop stop-opacity="1" stop-color="rgb(26.805115%, 65.036011%, 83.772278%)" offset="0.867188"/><stop stop-opacity="1" stop-color="rgb(26.78833%, 64.735413%, 83.946228%)" offset="0.875"/><stop stop-opacity="1" stop-color="rgb(26.77002%, 64.434814%, 84.120178%)" offset="0.882813"/><stop stop-opacity="1" stop-color="rgb(26.751709%, 64.134216%, 84.295654%)" offset="0.890625"/><stop stop-opacity="1" stop-color="rgb(26.733398%, 63.833618%, 84.469604%)" offset="0.898437"/><stop stop-opacity="1" stop-color="rgb(26.715088%, 63.531494%, 84.645081%)" offset="0.90625"/><stop stop-opacity="1" stop-color="rgb(26.698303%, 63.230896%, 84.819031%)" offset="0.914062"/><stop stop-opacity="1" stop-color="rgb(26.679993%, 62.930298%, 84.992981%)" offset="0.921875"/><stop stop-opacity="1" stop-color="rgb(26.669312%, 62.763977%, 85.090637%)" offset="0.9375"/><stop stop-opacity="1" stop-color="rgb(26.669312%, 62.748718%, 85.099792%)" offset="1"/></linearGradient><clipPath id="bcc0f1b951"><rect x="0" width="219" y="0" height="165"/></clipPath><clipPath id="99fbc16d38"><path d="M 55.082031 177.835938 L 248.582031 177.835938 L 248.582031 247.585938 L 55.082031 247.585938 Z M 55.082031 177.835938 " clip-rule="nonzero"/></clipPath></defs><g clip-path="url(#758b02277c)"><g clip-path="url(#f30c0f5f3f)"><path fill="url(#3ec4f668a0)" d="M 32.113281 33.875 L 32.113281 341.347656 L 342.613281 341.347656 L 342.613281 33.875 Z M 32.113281 33.875 " fill-rule="nonzero"/></g></g><g transform="matrix(1, 0, 0, 1, 77, 105)"><g clip-path="url(#bcc0f1b951)"><g fill="#ffffff" fill-opacity="1"><g transform="translate(0.730257, 126.602143)"><g><path d="M 2 0 L 12.25 -95.71875 L 30.5 -95.71875 L 22.484375 -30.609375 L 43.734375 -95.71875 L 62 -95.71875 L 28.15625 0 Z M 2 0 "/></g></g></g><g fill="#ffffff" fill-opacity="1"><g transform="translate(47.357867, 126.602143)"><g><path d="M -6.6875 0 L 15.359375 -95.609375 L 53.640625 -95.609375 L 49.40625 -77.125 L 30.609375 -77.125 L 26.265625 -58.546875 L 44.296875 -58.546875 L 40.171875 -40.515625 L 22.140625 -40.515625 L 17.03125 -18.59375 L 37.0625 -18.59375 L 32.828125 0 Z M -6.6875 0 "/></g></g></g><g fill="#ffffff" fill-opacity="1"><g transform="translate(87.642247, 126.602143)"><g><path d="M 15.796875 0.890625 C 7.117188 0.890625 1.351562 -1.257812 -1.5 -5.5625 C -4.363281 -9.863281 -4.679688 -16.800781 -2.453125 -26.375 L -0.328125 -35.71875 L 18.46875 -35.71875 L 15.6875 -23.8125 C 14.570312 -19.0625 15.535156 -16.6875 18.578125 -16.6875 C 20.285156 -16.6875 21.601562 -17.1875 22.53125 -18.1875 C 23.457031 -19.195312 24.179688 -20.890625 24.703125 -23.265625 C 25.441406 -26.378906 25.660156 -28.957031 25.359375 -31 C 25.066406 -33.039062 24.515625 -34.742188 23.703125 -36.109375 C 22.890625 -37.484375 21.332031 -39.617188 19.03125 -42.515625 L 12.6875 -50.75 C 7.789062 -56.976562 6.195312 -63.878906 7.90625 -71.453125 C 9.757812 -79.609375 13.054688 -85.820312 17.796875 -90.09375 C 22.546875 -94.363281 28.519531 -96.5 35.71875 -96.5 C 44.332031 -96.5 50.007812 -94.21875 52.75 -89.65625 C 55.5 -85.09375 55.722656 -77.945312 53.421875 -68.21875 L 33.9375 -68.21875 L 35.390625 -74.796875 C 35.679688 -76.054688 35.566406 -77.054688 35.046875 -77.796875 C 34.535156 -78.535156 33.648438 -78.90625 32.390625 -78.90625 C 30.898438 -78.90625 29.671875 -78.5 28.703125 -77.6875 C 27.742188 -76.875 27.117188 -75.757812 26.828125 -74.34375 C 26.078125 -71.226562 27.113281 -68 29.9375 -64.65625 L 38.625 -53.984375 C 40.625 -51.453125 42.21875 -49.054688 43.40625 -46.796875 C 44.59375 -44.535156 45.351562 -41.863281 45.6875 -38.78125 C 46.019531 -35.707031 45.703125 -32.054688 44.734375 -27.828125 C 42.515625 -18.398438 39.125 -11.253906 34.5625 -6.390625 C 30 -1.535156 23.742188 0.890625 15.796875 0.890625 Z M 15.796875 0.890625 "/></g></g></g><g fill="#ffffff" fill-opacity="1"><g transform="translate(133.379589, 126.602143)"><g><path d="M 15.796875 0.890625 C 7.117188 0.890625 1.351562 -1.257812 -1.5 -5.5625 C -4.363281 -9.863281 -4.679688 -16.800781 -2.453125 -26.375 L -0.328125 -35.71875 L 18.46875 -35.71875 L 15.6875 -23.8125 C 14.570312 -19.0625 15.535156 -16.6875 18.578125 -16.6875 C 20.285156 -16.6875 21.601562 -17.1875 22.53125 -18.1875 C 23.457031 -19.195312 24.179688 -20.890625 24.703125 -23.265625 C 25.441406 -26.378906 25.660156 -28.957031 25.359375 -31 C 25.066406 -33.039062 24.515625 -34.742188 23.703125 -36.109375 C 22.890625 -37.484375 21.332031 -39.617188 19.03125 -42.515625 L 12.6875 -50.75 C 7.789062 -56.976562 6.195312 -63.878906 7.90625 -71.453125 C 9.757812 -79.609375 13.054688 -85.820312 17.796875 -90.09375 C 22.546875 -94.363281 28.519531 -96.5 35.71875 -96.5 C 44.332031 -96.5 50.007812 -94.21875 52.75 -89.65625 C 55.5 -85.09375 55.722656 -77.945312 53.421875 -68.21875 L 33.9375 -68.21875 L 35.390625 -74.796875 C 35.679688 -76.054688 35.566406 -77.054688 35.046875 -77.796875 C 34.535156 -78.535156 33.648438 -78.90625 32.390625 -78.90625 C 30.898438 -78.90625 29.671875 -78.5 28.703125 -77.6875 C 27.742188 -76.875 27.117188 -75.757812 26.828125 -74.34375 C 26.078125 -71.226562 27.113281 -68 29.9375 -64.65625 L 38.625 -53.984375 C 40.625 -51.453125 42.21875 -49.054688 43.40625 -46.796875 C 44.59375 -44.535156 45.351562 -41.863281 45.6875 -38.78125 C 46.019531 -35.707031 45.703125 -32.054688 44.734375 -27.828125 C 42.515625 -18.398438 39.125 -11.253906 34.5625 -6.390625 C 30 -1.535156 23.742188 0.890625 15.796875 0.890625 Z M 15.796875 0.890625 "/></g></g></g><g fill="#ffffff" fill-opacity="1"><g transform="translate(179.11693, 126.602143)"><g><path d="M -6.6875 0 L 15.359375 -95.609375 L 34.5 -95.609375 L 16.25 -16.25 L 35.953125 -16.25 L 32.15625 0 Z M -6.6875 0 "/></g></g></g></g></g><g clip-path="url(#99fbc16d38)"><path fill="#2c393a" d="M 105.542969 219.875 L 102.34375 206.179688 C 102.234375 205.703125 101.808594 205.367188 101.320312 205.367188 C 101.320312 205.367188 101.316406 205.367188 101.316406 205.367188 C 100.824219 205.371094 100.402344 205.710938 100.296875 206.191406 L 98.046875 216.320312 L 95.308594 178.800781 C 95.269531 178.253906 94.8125 177.828125 94.261719 177.828125 C 94.261719 177.828125 94.257812 177.828125 94.257812 177.828125 C 93.703125 177.832031 93.25 178.261719 93.214844 178.8125 L 89.144531 241.933594 L 86.554688 213.015625 C 86.511719 212.527344 86.136719 212.132812 85.648438 212.070312 C 85.15625 212.003906 84.695312 212.285156 84.523438 212.75 L 81.925781 219.824219 L 55.355469 219.875 L 55.355469 221.976562 L 82.109375 221.921875 C 82.875 221.921875 83.566406 221.4375 83.832031 220.722656 L 84.882812 217.867188 L 87.410156 246.140625 C 87.488281 247.015625 88.207031 247.714844 89.082031 247.773438 C 89.121094 247.773438 89.160156 247.773438 89.199219 247.773438 C 89.632812 247.773438 90.046875 247.617188 90.375 247.328125 C 90.738281 247.011719 90.953125 246.578125 90.980469 246.101562 L 94.328125 194.203125 L 96.167969 219.4375 C 96.222656 220.164062 96.757812 220.78125 97.464844 220.9375 C 98.359375 221.136719 99.253906 220.570312 99.453125 219.675781 L 101.347656 211.148438 L 103.582031 220.714844 C 103.757812 221.457031 104.410156 221.976562 105.171875 221.976562 L 257.566406 221.925781 L 257.566406 219.824219 L 105.542969 219.875 " fill-opacity="1" fill-rule="nonzero"/></g></svg>