<svg xmlns="http://www.w3.org/2000/svg" xmlns:xlink="http://www.w3.org/1999/xlink" width="500" zoomAndPan="magnify" viewBox="0 0 375 374.999991" height="500" preserveAspectRatio="xMidYMid meet" version="1.0"><defs><g/><clipPath id="0f6c9eaee1"><rect x="0" width="298" y="0" height="223"/></clipPath><clipPath id="37d094c82b"><path d="M 17.476562 174.324219 L 280.726562 174.324219 L 280.726562 269.574219 L 17.476562 269.574219 Z M 17.476562 174.324219 " clip-rule="nonzero"/></clipPath><clipPath id="7d9eb57977"><path d="M 0.121094 3 L 9 3 L 9 14 L 0.121094 14 Z M 0.121094 3 " clip-rule="nonzero"/></clipPath><clipPath id="e959fb75c0"><rect x="0" width="270" y="0" height="18"/></clipPath></defs><g transform="matrix(1, 0, 0, 1, 47, 76)"><g clip-path="url(#0f6c9eaee1)"><g fill="#1d1d1d" fill-opacity="1"><g transform="translate(1.346896, 171.619545)"><g><path d="M 2.734375 0 L 16.6875 -130.484375 L 41.578125 -130.484375 L 30.640625 -41.71875 L 59.625 -130.484375 L 84.5 -130.484375 L 38.390625 0 Z M 2.734375 0 "/></g></g></g><g fill="#1d1d1d" fill-opacity="1"><g transform="translate(64.909144, 171.619545)"><g><path d="M -9.09375 0 L 20.9375 -130.328125 L 73.140625 -130.328125 L 67.375 -105.140625 L 41.734375 -105.140625 L 35.8125 -79.796875 L 60.390625 -79.796875 L 54.78125 -55.21875 L 30.203125 -55.21875 L 23.21875 -25.34375 L 50.53125 -25.34375 L 44.765625 0 Z M -9.09375 0 "/></g></g></g><g fill="#1d1d1d" fill-opacity="1"><g transform="translate(119.824371, 171.619545)"><g><path d="M 21.546875 1.21875 C 9.710938 1.21875 1.847656 -1.710938 -2.046875 -7.578125 C -5.941406 -13.453125 -6.367188 -22.910156 -3.328125 -35.953125 L -0.453125 -48.703125 L 25.1875 -48.703125 L 21.390625 -32.46875 C 19.878906 -26 21.195312 -22.765625 25.34375 -22.765625 C 27.664062 -22.765625 29.457031 -23.445312 30.71875 -24.8125 C 31.988281 -26.175781 32.976562 -28.472656 33.6875 -31.703125 C 34.695312 -35.953125 35 -39.46875 34.59375 -42.25 C 34.1875 -45.03125 33.425781 -47.359375 32.3125 -49.234375 C 31.207031 -51.109375 29.085938 -54.015625 25.953125 -57.953125 L 17.296875 -69.1875 C 10.617188 -77.675781 8.445312 -87.082031 10.78125 -97.40625 C 13.300781 -108.53125 17.796875 -117 24.265625 -122.8125 C 30.742188 -128.632812 38.890625 -131.546875 48.703125 -131.546875 C 60.441406 -131.546875 68.179688 -128.429688 71.921875 -122.203125 C 75.660156 -115.984375 75.960938 -106.25 72.828125 -93 L 46.28125 -93 L 48.25 -101.953125 C 48.65625 -103.671875 48.503906 -105.035156 47.796875 -106.046875 C 47.085938 -107.054688 45.875 -107.5625 44.15625 -107.5625 C 42.132812 -107.5625 40.460938 -107.003906 39.140625 -105.890625 C 37.828125 -104.785156 36.96875 -103.269531 36.5625 -101.34375 C 35.550781 -97.09375 36.96875 -92.695312 40.8125 -88.15625 L 52.65625 -73.578125 C 55.382812 -70.140625 57.554688 -66.878906 59.171875 -63.796875 C 60.796875 -60.710938 61.832031 -57.070312 62.28125 -52.875 C 62.738281 -48.675781 62.3125 -43.695312 61 -37.9375 C 57.957031 -25.082031 53.328125 -15.34375 47.109375 -8.71875 C 40.890625 -2.09375 32.367188 1.21875 21.546875 1.21875 Z M 21.546875 1.21875 "/></g></g></g><g fill="#1d1d1d" fill-opacity="1"><g transform="translate(182.173015, 171.619545)"><g><path d="M 21.546875 1.21875 C 9.710938 1.21875 1.847656 -1.710938 -2.046875 -7.578125 C -5.941406 -13.453125 -6.367188 -22.910156 -3.328125 -35.953125 L -0.453125 -48.703125 L 25.1875 -48.703125 L 21.390625 -32.46875 C 19.878906 -26 21.195312 -22.765625 25.34375 -22.765625 C 27.664062 -22.765625 29.457031 -23.445312 30.71875 -24.8125 C 31.988281 -26.175781 32.976562 -28.472656 33.6875 -31.703125 C 34.695312 -35.953125 35 -39.46875 34.59375 -42.25 C 34.1875 -45.03125 33.425781 -47.359375 32.3125 -49.234375 C 31.207031 -51.109375 29.085938 -54.015625 25.953125 -57.953125 L 17.296875 -69.1875 C 10.617188 -77.675781 8.445312 -87.082031 10.78125 -97.40625 C 13.300781 -108.53125 17.796875 -117 24.265625 -122.8125 C 30.742188 -128.632812 38.890625 -131.546875 48.703125 -131.546875 C 60.441406 -131.546875 68.179688 -128.429688 71.921875 -122.203125 C 75.660156 -115.984375 75.960938 -106.25 72.828125 -93 L 46.28125 -93 L 48.25 -101.953125 C 48.65625 -103.671875 48.503906 -105.035156 47.796875 -106.046875 C 47.085938 -107.054688 45.875 -107.5625 44.15625 -107.5625 C 42.132812 -107.5625 40.460938 -107.003906 39.140625 -105.890625 C 37.828125 -104.785156 36.96875 -103.269531 36.5625 -101.34375 C 35.550781 -97.09375 36.96875 -92.695312 40.8125 -88.15625 L 52.65625 -73.578125 C 55.382812 -70.140625 57.554688 -66.878906 59.171875 -63.796875 C 60.796875 -60.710938 61.832031 -57.070312 62.28125 -52.875 C 62.738281 -48.675781 62.3125 -43.695312 61 -37.9375 C 57.957031 -25.082031 53.328125 -15.34375 47.109375 -8.71875 C 40.890625 -2.09375 32.367188 1.21875 21.546875 1.21875 Z M 21.546875 1.21875 "/></g></g></g><g fill="#1d1d1d" fill-opacity="1"><g transform="translate(244.521659, 171.619545)"><g><path d="M -9.09375 0 L 20.9375 -130.328125 L 47.03125 -130.328125 L 22.15625 -22.15625 L 49.015625 -22.15625 L 43.84375 0 Z M -9.09375 0 "/></g></g></g></g></g><g clip-path="url(#37d094c82b)"><path fill="#4ca5a5" d="M 86.265625 231.632812 L 81.90625 212.964844 C 81.753906 212.316406 81.175781 211.859375 80.511719 211.859375 C 80.507812 211.859375 80.507812 211.859375 80.503906 211.859375 C 79.835938 211.863281 79.257812 212.328125 79.113281 212.980469 L 76.046875 226.785156 L 72.316406 175.644531 C 72.261719 174.894531 71.636719 174.316406 70.886719 174.316406 C 70.886719 174.316406 70.882812 174.316406 70.882812 174.316406 C 70.128906 174.320312 69.507812 174.902344 69.457031 175.65625 L 63.910156 261.707031 L 60.382812 222.285156 C 60.324219 221.617188 59.808594 221.082031 59.144531 220.992188 C 58.476562 220.902344 57.84375 221.289062 57.613281 221.917969 L 54.070312 231.5625 L 17.851562 231.632812 L 17.851562 234.496094 L 54.324219 234.425781 C 55.367188 234.425781 56.308594 233.765625 56.671875 232.789062 L 58.101562 228.898438 L 61.550781 267.441406 C 61.65625 268.632812 62.632812 269.585938 63.824219 269.664062 C 63.878906 269.667969 63.929688 269.667969 63.984375 269.667969 C 64.574219 269.667969 65.140625 269.457031 65.589844 269.058594 C 66.082031 268.628906 66.375 268.035156 66.414062 267.382812 L 70.976562 196.640625 L 73.484375 231.035156 C 73.5625 232.027344 74.289062 232.871094 75.257812 233.085938 C 76.476562 233.351562 77.691406 232.582031 77.964844 231.359375 L 80.546875 219.734375 L 83.59375 232.78125 C 83.832031 233.792969 84.722656 234.5 85.761719 234.5 L 293.507812 234.433594 L 293.507812 231.566406 L 86.265625 231.632812 " fill-opacity="1" fill-rule="nonzero"/></g><g transform="matrix(1, 0, 0, 1, 75, 255)"><g clip-path="url(#e959fb75c0)"><g clip-path="url(#7d9eb57977)"><g fill="#1d1d1d" fill-opacity="1"><g transform="translate(0.329948, 13.558576)"><g><path d="M 4.25 -4.609375 C 3.082031 -4.953125 2.226562 -5.367188 1.6875 -5.859375 C 1.15625 -6.347656 0.890625 -6.953125 0.890625 -7.671875 C 0.890625 -8.484375 1.210938 -9.15625 1.859375 -9.6875 C 2.515625 -10.226562 3.367188 -10.5 4.421875 -10.5 C 5.128906 -10.5 5.757812 -10.359375 6.3125 -10.078125 C 6.875 -9.804688 7.304688 -9.425781 7.609375 -8.9375 C 7.921875 -8.457031 8.078125 -7.929688 8.078125 -7.359375 L 6.703125 -7.359375 C 6.703125 -7.984375 6.5 -8.472656 6.09375 -8.828125 C 5.695312 -9.191406 5.140625 -9.375 4.421875 -9.375 C 3.742188 -9.375 3.21875 -9.222656 2.84375 -8.921875 C 2.46875 -8.628906 2.28125 -8.21875 2.28125 -7.6875 C 2.28125 -7.269531 2.457031 -6.914062 2.8125 -6.625 C 3.164062 -6.332031 3.773438 -6.066406 4.640625 -5.828125 C 5.503906 -5.585938 6.175781 -5.320312 6.65625 -5.03125 C 7.144531 -4.738281 7.503906 -4.394531 7.734375 -4 C 7.972656 -3.613281 8.09375 -3.15625 8.09375 -2.625 C 8.09375 -1.789062 7.765625 -1.117188 7.109375 -0.609375 C 6.453125 -0.109375 5.578125 0.140625 4.484375 0.140625 C 3.773438 0.140625 3.113281 0.00390625 2.5 -0.265625 C 1.882812 -0.535156 1.40625 -0.90625 1.0625 -1.375 C 0.726562 -1.851562 0.5625 -2.394531 0.5625 -3 L 1.9375 -3 C 1.9375 -2.375 2.164062 -1.878906 2.625 -1.515625 C 3.09375 -1.148438 3.710938 -0.96875 4.484375 -0.96875 C 5.203125 -0.96875 5.753906 -1.113281 6.140625 -1.40625 C 6.523438 -1.707031 6.71875 -2.109375 6.71875 -2.609375 C 6.71875 -3.117188 6.539062 -3.507812 6.1875 -3.78125 C 5.832031 -4.0625 5.1875 -4.335938 4.25 -4.609375 Z M 4.25 -4.609375 "/></g></g></g></g><g fill="#1d1d1d" fill-opacity="1"><g transform="translate(15.511611, 13.558576)"><g><path d="M 8.359375 -9.234375 L 5.03125 -9.234375 L 5.03125 0 L 3.671875 0 L 3.671875 -9.234375 L 0.34375 -9.234375 L 0.34375 -10.359375 L 8.359375 -10.359375 Z M 8.359375 -9.234375 "/></g></g></g><g fill="#1d1d1d" fill-opacity="1"><g transform="translate(30.743061, 13.558576)"><g><path d="M 5 -4.1875 L 2.5625 -4.1875 L 2.5625 0 L 1.1875 0 L 1.1875 -10.359375 L 4.625 -10.359375 C 5.789062 -10.359375 6.6875 -10.09375 7.3125 -9.5625 C 7.9375 -9.03125 8.25 -8.253906 8.25 -7.234375 C 8.25 -6.585938 8.070312 -6.023438 7.71875 -5.546875 C 7.375 -5.066406 6.894531 -4.710938 6.28125 -4.484375 L 8.703125 -0.078125 L 8.703125 0 L 7.25 0 Z M 2.5625 -5.296875 L 4.671875 -5.296875 C 5.347656 -5.296875 5.882812 -5.472656 6.28125 -5.828125 C 6.6875 -6.179688 6.890625 -6.648438 6.890625 -7.234375 C 6.890625 -7.878906 6.695312 -8.367188 6.3125 -8.703125 C 5.925781 -9.046875 5.375 -9.222656 4.65625 -9.234375 L 2.5625 -9.234375 Z M 2.5625 -5.296875 "/></g></g></g><g fill="#1d1d1d" fill-opacity="1"><g transform="translate(46.251892, 13.558576)"><g><path d="M 7.046875 -4.78125 L 2.5625 -4.78125 L 2.5625 -1.109375 L 7.78125 -1.109375 L 7.78125 0 L 1.203125 0 L 1.203125 -10.359375 L 7.703125 -10.359375 L 7.703125 -9.234375 L 2.5625 -9.234375 L 2.5625 -5.90625 L 7.046875 -5.90625 Z M 7.046875 -4.78125 "/></g></g></g><g fill="#1d1d1d" fill-opacity="1"><g transform="translate(61.070826, 13.558576)"><g><path d="M 9.15625 0 L 7.78125 0 L 2.578125 -7.984375 L 2.578125 0 L 1.203125 0 L 1.203125 -10.359375 L 2.578125 -10.359375 L 7.796875 -2.34375 L 7.796875 -10.359375 L 9.15625 -10.359375 Z M 9.15625 0 "/></g></g></g><g fill="#1d1d1d" fill-opacity="1"><g transform="translate(77.995015, 13.558576)"><g><path d="M 8.84375 -1.359375 C 8.488281 -0.859375 8 -0.484375 7.375 -0.234375 C 6.75 0.015625 6.019531 0.140625 5.1875 0.140625 C 4.34375 0.140625 3.59375 -0.0546875 2.9375 -0.453125 C 2.28125 -0.847656 1.769531 -1.410156 1.40625 -2.140625 C 1.050781 -2.867188 0.875 -3.710938 0.875 -4.671875 L 0.875 -5.578125 C 0.875 -7.140625 1.234375 -8.347656 1.953125 -9.203125 C 2.679688 -10.066406 3.707031 -10.5 5.03125 -10.5 C 6.101562 -10.5 6.96875 -10.222656 7.625 -9.671875 C 8.289062 -9.117188 8.695312 -8.332031 8.84375 -7.3125 L 7.484375 -7.3125 C 7.222656 -8.6875 6.40625 -9.375 5.03125 -9.375 C 4.113281 -9.375 3.421875 -9.050781 2.953125 -8.40625 C 2.484375 -7.757812 2.242188 -6.832031 2.234375 -5.625 L 2.234375 -4.765625 C 2.234375 -3.609375 2.5 -2.6875 3.03125 -2 C 3.5625 -1.3125 4.28125 -0.96875 5.1875 -0.96875 C 5.695312 -0.96875 6.144531 -1.023438 6.53125 -1.140625 C 6.914062 -1.253906 7.234375 -1.445312 7.484375 -1.71875 L 7.484375 -4.046875 L 5.09375 -4.046875 L 5.09375 -5.15625 L 8.84375 -5.15625 Z M 8.84375 -1.359375 "/></g></g></g><g fill="#1d1d1d" fill-opacity="1"><g transform="translate(94.456901, 13.558576)"><g><path d="M 8.359375 -9.234375 L 5.03125 -9.234375 L 5.03125 0 L 3.671875 0 L 3.671875 -9.234375 L 0.34375 -9.234375 L 0.34375 -10.359375 L 8.359375 -10.359375 Z M 8.359375 -9.234375 "/></g></g></g><g fill="#1d1d1d" fill-opacity="1"><g transform="translate(109.68835, 13.558576)"><g><path d="M 9.15625 0 L 7.78125 0 L 7.78125 -4.78125 L 2.5625 -4.78125 L 2.5625 0 L 1.203125 0 L 1.203125 -10.359375 L 2.5625 -10.359375 L 2.5625 -5.90625 L 7.78125 -5.90625 L 7.78125 -10.359375 L 9.15625 -10.359375 Z M 9.15625 0 "/></g></g></g><g fill="#1d1d1d" fill-opacity="1"><g transform="translate(126.612539, 13.558576)"><g/></g></g><g fill="#1d1d1d" fill-opacity="1"><g transform="translate(136.758659, 13.558576)"><g><path d="M 2.671875 0 L 1.296875 0 L 1.296875 -10.359375 L 2.671875 -10.359375 Z M 2.671875 0 "/></g></g></g><g fill="#1d1d1d" fill-opacity="1"><g transform="translate(147.260395, 13.558576)"><g><path d="M 9.15625 0 L 7.78125 0 L 2.578125 -7.984375 L 2.578125 0 L 1.203125 0 L 1.203125 -10.359375 L 2.578125 -10.359375 L 7.796875 -2.34375 L 7.796875 -10.359375 L 9.15625 -10.359375 Z M 9.15625 0 "/></g></g></g><g fill="#1d1d1d" fill-opacity="1"><g transform="translate(164.184584, 13.558576)"><g/></g></g><g fill="#1d1d1d" fill-opacity="1"><g transform="translate(174.330704, 13.558576)"><g><path d="M 2.96875 -10.359375 L 6.34375 -1.90625 L 9.734375 -10.359375 L 11.5 -10.359375 L 11.5 0 L 10.140625 0 L 10.140625 -4.03125 L 10.265625 -8.390625 L 6.875 0 L 5.828125 0 L 2.4375 -8.359375 L 2.5625 -4.03125 L 2.5625 0 L 1.203125 0 L 1.203125 -10.359375 Z M 2.96875 -10.359375 "/></g></g></g><g fill="#1d1d1d" fill-opacity="1"><g transform="translate(193.587743, 13.558576)"><g><path d="M 9.171875 -4.84375 C 9.171875 -3.832031 9 -2.945312 8.65625 -2.1875 C 8.3125 -1.425781 7.828125 -0.847656 7.203125 -0.453125 C 6.578125 -0.0546875 5.847656 0.140625 5.015625 0.140625 C 4.203125 0.140625 3.476562 -0.0546875 2.84375 -0.453125 C 2.21875 -0.859375 1.726562 -1.429688 1.375 -2.171875 C 1.03125 -2.910156 0.851562 -3.769531 0.84375 -4.75 L 0.84375 -5.5 C 0.84375 -6.488281 1.015625 -7.363281 1.359375 -8.125 C 1.703125 -8.894531 2.191406 -9.484375 2.828125 -9.890625 C 3.460938 -10.296875 4.1875 -10.5 5 -10.5 C 5.832031 -10.5 6.5625 -10.296875 7.1875 -9.890625 C 7.820312 -9.492188 8.3125 -8.914062 8.65625 -8.15625 C 9 -7.394531 9.171875 -6.507812 9.171875 -5.5 Z M 7.8125 -5.515625 C 7.8125 -6.742188 7.5625 -7.6875 7.0625 -8.34375 C 6.570312 -9 5.882812 -9.328125 5 -9.328125 C 4.132812 -9.328125 3.453125 -9 2.953125 -8.34375 C 2.460938 -7.6875 2.210938 -6.773438 2.203125 -5.609375 L 2.203125 -4.84375 C 2.203125 -3.65625 2.453125 -2.71875 2.953125 -2.03125 C 3.453125 -1.351562 4.140625 -1.015625 5.015625 -1.015625 C 5.890625 -1.015625 6.566406 -1.332031 7.046875 -1.96875 C 7.535156 -2.613281 7.789062 -3.539062 7.8125 -4.75 Z M 7.8125 -5.515625 "/></g></g></g><g fill="#1d1d1d" fill-opacity="1"><g transform="translate(210.14209, 13.558576)"><g><path d="M 8.359375 -9.234375 L 5.03125 -9.234375 L 5.03125 0 L 3.671875 0 L 3.671875 -9.234375 L 0.34375 -9.234375 L 0.34375 -10.359375 L 8.359375 -10.359375 Z M 8.359375 -9.234375 "/></g></g></g><g fill="#1d1d1d" fill-opacity="1"><g transform="translate(225.37354, 13.558576)"><g><path d="M 2.671875 0 L 1.296875 0 L 1.296875 -10.359375 L 2.671875 -10.359375 Z M 2.671875 0 "/></g></g></g><g fill="#1d1d1d" fill-opacity="1"><g transform="translate(235.875277, 13.558576)"><g><path d="M 9.171875 -4.84375 C 9.171875 -3.832031 9 -2.945312 8.65625 -2.1875 C 8.3125 -1.425781 7.828125 -0.847656 7.203125 -0.453125 C 6.578125 -0.0546875 5.847656 0.140625 5.015625 0.140625 C 4.203125 0.140625 3.476562 -0.0546875 2.84375 -0.453125 C 2.21875 -0.859375 1.726562 -1.429688 1.375 -2.171875 C 1.03125 -2.910156 0.851562 -3.769531 0.84375 -4.75 L 0.84375 -5.5 C 0.84375 -6.488281 1.015625 -7.363281 1.359375 -8.125 C 1.703125 -8.894531 2.191406 -9.484375 2.828125 -9.890625 C 3.460938 -10.296875 4.1875 -10.5 5 -10.5 C 5.832031 -10.5 6.5625 -10.296875 7.1875 -9.890625 C 7.820312 -9.492188 8.3125 -8.914062 8.65625 -8.15625 C 9 -7.394531 9.171875 -6.507812 9.171875 -5.5 Z M 7.8125 -5.515625 C 7.8125 -6.742188 7.5625 -7.6875 7.0625 -8.34375 C 6.570312 -9 5.882812 -9.328125 5 -9.328125 C 4.132812 -9.328125 3.453125 -9 2.953125 -8.34375 C 2.460938 -7.6875 2.210938 -6.773438 2.203125 -5.609375 L 2.203125 -4.84375 C 2.203125 -3.65625 2.453125 -2.71875 2.953125 -2.03125 C 3.453125 -1.351562 4.140625 -1.015625 5.015625 -1.015625 C 5.890625 -1.015625 6.566406 -1.332031 7.046875 -1.96875 C 7.535156 -2.613281 7.789062 -3.539062 7.8125 -4.75 Z M 7.8125 -5.515625 "/></g></g></g><g fill="#1d1d1d" fill-opacity="1"><g transform="translate(252.429623, 13.558576)"><g><path d="M 9.15625 0 L 7.78125 0 L 2.578125 -7.984375 L 2.578125 0 L 1.203125 0 L 1.203125 -10.359375 L 2.578125 -10.359375 L 7.796875 -2.34375 L 7.796875 -10.359375 L 9.15625 -10.359375 Z M 9.15625 0 "/></g></g></g></g></g></svg>